<svg xmlns="http://www.w3.org/2000/svg" xmlns:xlink="http://www.w3.org/1999/xlink" viewBox="0 0 530.6 533.09"><defs><style>.cls-1{fill:url(#linear-gradient);}</style><linearGradient id="linear-gradient" x1="16.64" y1="181.06" x2="400.82" y2="503.42" gradientUnits="userSpaceOnUse"><stop offset="0" stop-color="#ffd664"/><stop offset="1" stop-color="#ff1684"/></linearGradient></defs><title>LogoBlack</title><g id="Layer_2" data-name="Layer 2"><g id="Design"><path class="cls-1" d="M203,383.41c-2.63-4.27-5.13-8.6-7.52-13-1.34-2.48-2.66-5-3.92-7.53q-1-2.07-2-4.16a135.77,135.77,0,0,0,70.91-174c-.53-1.35-1.08-2.69-1.65-4A135.67,135.67,0,0,0,134.33,99.05H52.58a272,272,0,0,0-24.2,38.79,268.85,268.85,0,0,0-17.49,42.8H136c11.29,0,22.63,3,31.59,9.83a1.33,1.33,0,0,0,.19.14,55.09,55.09,0,0,1,18.07,24.59.11.11,0,0,0,0,.07,55,55,0,0,1-20.27,63.91v0a54.55,54.55,0,0,1-26.74,9.58c-1.5.14-3,.19-4.53.19s-3-.05-4.54-.19H0a270,270,0,0,0,20.11,78.69l.24.57c.34.79.67,1.57,1,2.34q.95,2.16,1.93,4.28c42.9,93.49,137.34,158.43,247,158.43a270.28,270.28,0,0,0,113.44-24.76A271.8,271.8,0,0,1,203,383.41Z"/><path d="M181.93,35.78l2.83-1.13-7-6.5a5.33,5.33,0,0,0,1.87-2.84,5.63,5.63,0,0,0-.3-3.5,5.25,5.25,0,0,0-3.08-3.18,6.4,6.4,0,0,0-4.74.23l-6,2.38,7.25,18.19,2.57-1-3.08-7.72,2.9-1.15Zm-10.7-7.65-2.14-5.37,3.4-1.35a4.18,4.18,0,0,1,2.32-.33,2.57,2.57,0,0,1,1.92,1.76,2.57,2.57,0,0,1-.18,2.59,4.27,4.27,0,0,1-1.92,1.35Z"/><path d="M197.59,9.94l-2.65.76,5.4,18.83,2.65-.76Z"/><path d="M234,19.26l-11,1.9L231,5.39l-.44-2.6L216.8,5.16l.46,2.7,10.27-1.77-7.92,15.78.45,2.6L234.51,22Z"/><path d="M266,8.83,273.64.07,273.7,0l-2.76,0H270l-7.43,8.46,0-8.42h-2.76l.13,19.59,2.76,0-.05-7L264.09,11l6.27,8.64,3.38,0Z"/><path d="M313.35,3.72,313.1,4l-5.45,6-3.4-7.36-.15-.32-3.28-.51.18.39,4.84,10.43-1.49,9.58,2.71.42,1.49-9.54,7.74-8.47.33-.36Z"/><path d="M372.9,21.43l-2.68-1.14-.34.37-13.54,15L359,36.81l3.86-4.26,6.29,2.68L368.75,41l2.68,1.14L372.87,22l0-.51v0Zm-3.53,10.91-4.56-2,5.09-5.64Z"/><path d="M413.1,48.65a7.78,7.78,0,0,0-.56-4.52,6.69,6.69,0,0,0-.77-1.28,9.21,9.21,0,0,0-5.28-3.34,7,7,0,0,0-3.56.21,10.81,10.81,0,0,0-5.7,4.87,11,11,0,0,0-2,7.21,7.13,7.13,0,0,0,3.55,5.36,7.27,7.27,0,0,0,5.5,1.13L403.22,60l2.34,1.47,6-9.44-5.78-3.65-1.48,2.33,3.39,2.14a7.07,7.07,0,0,1-3.59,2.68,4.65,4.65,0,0,1-3.82-.67,4.58,4.58,0,0,1-2.31-3.63,8.65,8.65,0,0,1,1.63-5.14,8.24,8.24,0,0,1,4-3.62,5.32,5.32,0,0,1,6.82,5.78Z"/><path d="M449,71.36l-.31.34-7.41,8.14A7.38,7.38,0,0,1,440,81a5.09,5.09,0,0,1-1.64.86,4.69,4.69,0,0,1-5.61-5.1,5.48,5.48,0,0,1,.7-1.72,8.87,8.87,0,0,1,1-1.35l7.39-8.12.33-.37-2-1.85-.38.42-7.34,8.06a8.57,8.57,0,0,0-2.54,5.72,7.71,7.71,0,0,0,7.94,7.23,8.56,8.56,0,0,0,5.46-3.07l7.38-8.11.34-.38Z"/><path d="M475.82,101.17a9.76,9.76,0,0,0-1.08-1.66,9.91,9.91,0,0,0-1.52-1.57,6.4,6.4,0,0,0-2.64-1.3,5.32,5.32,0,0,0-6.24,5,7.35,7.35,0,0,0,1.82,4.71,8.66,8.66,0,0,1,.74,1.08,5,5,0,0,1,.52,1.32,2.74,2.74,0,0,1-3.82,3,5.14,5.14,0,0,1-1.17-.81,7.6,7.6,0,0,1-.88-1,9.08,9.08,0,0,1-.74-1.08,4.69,4.69,0,0,1-.52-1.32,2.5,2.5,0,0,1,1-2.69l-.05-.07-1.81-2a5.06,5.06,0,0,0-2,4,7.84,7.84,0,0,0,1.95,4.83,7.68,7.68,0,0,0,4.34,3,5.61,5.61,0,0,0,6.53-5.18,7.7,7.7,0,0,0-1.93-4.91,7.16,7.16,0,0,1-.68-1,4.84,4.84,0,0,1-.49-1.23,2.49,2.49,0,0,1,3.52-2.78,4.59,4.59,0,0,1,1.08.75,7.19,7.19,0,0,1,.83.89,7.1,7.1,0,0,1,.66,1,4.69,4.69,0,0,1,.49,1.19,2.33,2.33,0,0,1-.78,2.45l1.89,2a4.84,4.84,0,0,0,1.72-3.81A6.4,6.4,0,0,0,475.82,101.17Z"/><path d="M492.78,125.19l-.32-.56h0L490.07,126l2.82,4.84-14.56,8.45,1.39,2.39,14.55-8.45,2.81,4.84,2.39-1.38Z"/><path d="M508.11,154.26l-17.9,8,1.12,2.52,17.9-7.95Z"/><path d="M520.7,188.15l-13.38,4.12,11.23-11.17-.87-2.8L499,184.06l.81,2.64,13.38-4.12-11.23,11.17.86,2.79,18.71-5.77Z"/><path d="M529.28,229a7.16,7.16,0,0,0-3.34-5.49,12.94,12.94,0,0,0-14.21,1.79,7.13,7.13,0,0,0-1.89,6.14,7.22,7.22,0,0,0,3.35,5.5,13,13,0,0,0,14.22-1.79A7.22,7.22,0,0,0,529.28,229Zm-4.08,4.43a10.44,10.44,0,0,1-10.32,1.29,5,5,0,0,1-1-7.71,10.54,10.54,0,0,1,10.31-1.3,5,5,0,0,1,1,7.72Z"/><path d="M511.13,281.85l-.3,2.74,8.25.91-.34,3.11-8.69,3.05-.34,3,9.05-3.16a5.34,5.34,0,0,0,1.63,3,5.64,5.64,0,0,0,3.22,1.38,5.3,5.3,0,0,0,4.27-1.23,6.37,6.37,0,0,0,2-4.29l.7-6.38Zm16,8.22a4.14,4.14,0,0,1-.81,2.21,2.56,2.56,0,0,1-2.44.86,2.53,2.53,0,0,1-2.2-1.37,4.13,4.13,0,0,1-.29-2.33l.4-3.64,5.74.64Z"/><path d="M522.67,329.46,505.56,317.8l-.77,2.8,4.74,3.24-1.81,6.6-5.72.38-.77,2.8,20.67-1.34h0v0Zm-12,.8,1.31-4.79,6.28,4.28Z"/><path d="M492.53,357.38l-1.15,2.51,7.65,3.5-2.77,6.05,2.51,1.15,2.77-6,5.14,2.36-4.08,8.92,2.51,1.15,5.23-11.44Z"/><path d="M481.54,380l-1.49,2.5,3.69,4.39-3.52,5.87-5.61-1.18-1.5,2.5,20.27,4.28h0l1.49-2.5Zm1.52,13.36,2.55-4.25,4.9,5.82Z"/><path d="M458,414.89l-8.15,9.58,2.1,1.79,6.36-7.48,4.31,3.67-4.31,5.06,2.1,1.79,4.31-5.06,4.31,3.67-6.36,7.48,2.09,1.78,8.15-9.58Z"/><path d="M434.33,440.2l-8.45,7.49,1.83,2.07,6.39-5.67,11.16,12.6,2.07-1.83Z"/></g></g></svg>